<svg class=" " viewBox="0 0 1600 800"><path d="M4,750.738C4,750.738,26.03,742.457,32.905,735.354C39.149,728.902,44.978,719.056,44.806,711.111C44.635,703.258,38.318,693.468,32.161,687.95C26.04,682.465,8.04,678.028,8.04,678.028" stroke="#4CAF50" stroke-width="1" fill="none" stroke-linecap="round" stroke-miterlimit="4"></path><path d="M4,793.065C4,793.065,32.908,788.415,45.448,783.838C56.823,779.687,67.415,774.539,76.424,767.677C85.195,760.995,93.548,752.794,98.995,743.434C104.503,733.968,108.837,721.929,109.146,711.111C109.453,700.38,106.081,687.837,100.992,678.788C96.216,670.297,88.688,663.475,80.402,657.871C71.372,651.763,59.79,647.408,48.241,644.42C35.802,641.202,8.04,639.973,8.04,639.973" stroke="#4CAF50" stroke-width="1" fill="none" stroke-linecap="round" stroke-miterlimit="4"></path><path d="M1001.5,4C1001.5,4,1030.205,26.02,1048.015,32.323C1068.235,39.479,1094.182,41.832,1117.588,41.657C1141.484,41.478,1167.254,37.395,1189.95,30.844C1211.632,24.585,1251.095,4,1251.095,4" stroke="#4CAF50" stroke-width="1" fill="none" stroke-linecap="round" stroke-miterlimit="4"></path><path d="M98.11,796C98.11,796,117.622,784.134,125.577,775.758C134.053,766.833,142.237,755.354,146.916,743.434C151.728,731.177,154.173,715.694,153.632,703.03C153.143,691.601,149.915,680.322,145.374,670.707C141.063,661.581,135.175,653.505,127.61,646.465C119.244,638.679,110.2,631.857,96.482,626.927C75.112,619.247,8.04,615.41,8.04,615.41" stroke="#4CAF50" stroke-width="1" fill="none" stroke-linecap="round" stroke-miterlimit="4"></path><path d="M938.904,4C938.904,4,951.663,24.488,960.879,32.323C970.747,40.714,981.238,46.57,996.985,51.972C1022.262,60.643,1066.027,69.178,1101.508,69.113C1138.339,69.045,1179.25,61.621,1214.07,50.227C1247.12,39.411,1305.919,4,1305.919,4" stroke="#4CAF50" stroke-width="1" fill="none" stroke-linecap="round" stroke-miterlimit="4"></path><path d="M1203.403,796C1203.403,796,1217.369,780.842,1215.314,775.758C1212.533,768.878,1188.818,764.888,1173.869,764.257C1156.619,763.529,1133.184,768.533,1117.588,774.865C1104.84,780.042,1085.687,796,1085.687,796" stroke="#4CAF50" stroke-width="1" fill="none" stroke-linecap="round" stroke-miterlimit="4"></path><path d="M153.499,796C153.499,796,174.418,772.708,180.765,759.596C186.849,747.026,190.279,732.763,191.46,719.192C192.623,705.824,191.614,691.841,188.012,678.788C184.27,665.229,177.303,650.427,168.844,639.453C160.88,629.121,150.265,620.718,139.448,614.141C128.794,607.664,119.404,603.397,104.523,600.124C80.679,594.881,8.04,595.176,8.04,595.176" stroke="#4CAF50" stroke-width="1" fill="none" stroke-linecap="round" stroke-miterlimit="4"></path><path d="M230.575,113.131C233.088,122.667,239.332,130.782,246.508,137.374C254.267,144.501,264.99,149.56,276.324,153.535C289.525,158.166,305.126,160.603,321.608,161.681C341.107,162.956,364.634,161.688,385.93,158.633C407.519,155.536,431.078,149.961,450.251,143.056C466.888,137.064,483.133,130.922,495.039,121.212C505.812,112.426,519.058,99.159,519.932,88.889C520.648,80.469,513.694,71.168,507.111,64.646C499.656,57.259,490.336,53.484,475.858,48.485C447.767,38.785,382.865,24.921,345.729,23.768C318.172,22.913,290.506,26.464,273.367,32.907C262.542,36.977,255.932,42.378,249.246,49.181C242.513,56.032,236.385,64.25,233.166,73.927C229.452,85.093,227.65,102.034,230.575,113.131" stroke="#4CAF50" stroke-width="1" fill="none" stroke-linecap="round" stroke-miterlimit="4"></path><path d="M880.42,4C880.42,4,889.371,30.429,898.195,40.404C907.442,50.856,920.568,57.601,935.485,64.646C954.587,73.668,981.358,81.733,1005.025,86.615C1028.66,91.49,1053.254,93.669,1077.387,93.935C1101.496,94.202,1125.785,92.101,1149.749,88.227C1174.031,84.301,1198.319,78.217,1222.111,70.379C1246.443,62.363,1271.972,51.932,1294.073,40.404C1314.592,29.701,1350.754,4.323,1350.754,4.323" stroke="#4CAF50" stroke-width="1" fill="none" stroke-linecap="round" stroke-miterlimit="4"></path><path d="M1325.291,796C1325.291,796,1345.34,777.265,1346.407,767.677C1347.372,759.013,1342.047,748.337,1334.673,741.324C1324.8,731.934,1304.898,727.042,1286.432,722.682C1263.356,717.233,1232.41,715.545,1206.03,715.022C1180.542,714.517,1155.203,715.859,1130.746,719.192C1106.999,722.428,1081.982,727.273,1061.307,734.395C1043.366,740.574,1027.821,747.871,1013.065,757.573C998.346,767.251,972.864,792.504,972.864,792.504" stroke="#4CAF50" stroke-width="1" fill="none" stroke-linecap="round" stroke-miterlimit="4"></path><path d="M198.558,796C198.558,796,216.546,767.108,221.24,751.515C225.88,736.101,227.501,719.132,226.755,703.03C226.002,686.808,222.5,669.311,216.626,654.545C211.017,640.445,202.636,626.691,192.965,616.064C183.835,606.032,172.669,598.149,160.804,591.85C148.612,585.377,137.678,580.974,120.603,578.045C92.815,573.278,8.04,577.035,8.04,577.035" stroke="#4CAF50" stroke-width="1" fill="none" stroke-linecap="round" stroke-miterlimit="4"></path><path d="M445.583,4C445.583,4,559.149,28.597,587.272,40.404C600.271,45.861,608.586,49.256,614.023,56.566C618.889,63.107,622.385,72.316,620.26,80.808C617.115,93.376,599.172,108.994,583.2,121.212C562.977,136.684,533.063,150.83,505.125,161.616C475.573,173.025,442.102,181.213,410.05,186.841C378.244,192.426,344.958,196.546,313.568,195.384C283.374,194.266,248.596,191.278,225.126,180.899C206.4,172.617,189.382,160.767,180.426,145.455C171.451,130.111,170.492,109.548,171.405,88.889C172.533,63.35,192.758,4,192.758,4" stroke="#4CAF50" stroke-width="1" fill="none" stroke-linecap="round" stroke-miterlimit="4"></path><path d="M1392.355,4C1392.355,4,1348.367,34.988,1322.95,48.485C1294.813,63.426,1261.121,77.826,1230.151,88.412C1200.703,98.477,1170.69,106.281,1141.709,111.22C1114.467,115.862,1089.84,118.515,1061.307,118.086C1028.725,117.595,990.937,113.508,956.784,105.982C922.475,98.421,881.729,86.164,855.941,72.727C837.557,63.148,818.938,53.372,812.722,40.404C807.614,29.75,813.983,4,813.983,4" stroke="#4CAF50" stroke-width="1" fill="none" stroke-linecap="round" stroke-miterlimit="4"></path><path d="M1397.83,796C1397.83,796,1411.825,783.335,1416.16,775.758C1420.34,768.449,1423.948,758.749,1423.748,751.515C1423.584,745.553,1421.227,740.315,1417.693,735.354C1413.411,729.341,1407.588,724.152,1398.168,719.192C1381.147,710.231,1347.706,701.552,1318.593,696.495C1284.601,690.589,1242.927,689.223,1206.03,689.038C1170.363,688.859,1134.092,690.392,1100.779,694.949C1070.033,699.156,1038.163,704.804,1013.065,714.179C992.359,721.913,976.166,730.751,959.399,743.434C941.113,757.267,908.543,795.391,908.543,795.391" stroke="#4CAF50" stroke-width="1" fill="none" stroke-linecap="round" stroke-miterlimit="4"></path><path d="M239.557,796C239.557,796,254.838,761.551,258.095,743.434C261.376,725.183,261.482,705.545,259.042,686.869C256.554,667.828,250.735,646.61,242.986,630.303C236.194,616.01,227.203,603.412,217.085,593.296C207.654,583.866,197.27,576.801,184.925,570.793C170.932,563.984,156.906,558.815,136.683,556.12C104.375,551.815,8.04,560.019,8.04,560.019" stroke="#4CAF50" stroke-width="1" fill="none" stroke-linecap="round" stroke-miterlimit="4"></path><path d="M125.477,4C125.477,4,130.075,25.565,130.747,40.404C131.793,63.488,122.457,105.716,126.008,129.293C128.477,145.688,133.448,158.642,140.86,169.697C147.627,179.79,157.404,187.288,167.315,193.939C177.411,200.716,186.469,205.468,201.005,209.82C224.517,216.859,265.272,222.562,297.487,223.544C329.594,224.522,361.949,220.345,393.97,215.773C426.273,211.16,453.022,207.044,490.452,195.882C545.893,179.35,647.066,130.527,691.457,116.461C712.73,109.72,722.332,106.643,739.698,104.787C759.472,102.674,776.757,103.687,804.02,106.361C852.563,111.122,944.287,137.76,1005.025,141.087C1054.791,143.813,1095.459,141.514,1141.709,132.651C1191.821,123.048,1245.947,104.096,1294.472,82.528C1342.608,61.134,1431.808,4,1431.808,4" stroke="#4CAF50" stroke-width="1" fill="none" stroke-linecap="round" stroke-miterlimit="4"></path><path d="M1460.048,796C1460.048,796,1478.247,777.299,1482.988,767.677C1486.909,759.72,1489.663,751.361,1488.789,743.434C1487.88,735.187,1482.649,725.888,1476.945,719.192C1471.129,712.365,1464.771,708.083,1454.02,703.03C1434.478,693.845,1398.954,684.455,1364.569,678.788C1319.553,671.369,1256.925,669.215,1206.03,668.942C1158.788,668.689,1110.179,670.709,1069.347,675.961C1035.597,680.301,1004.126,685.089,977.79,694.949C955.668,703.232,938.482,712.581,920.278,727.273C898.961,744.477,860.302,794.998,860.302,794.998" stroke="#4CAF50" stroke-width="1" fill="none" stroke-linecap="round" stroke-miterlimit="4"></path><path d="M279.059,796C279.059,796,291.415,756.029,293.352,735.354C295.326,714.283,293.952,691.428,290.467,670.707C287.11,650.742,281.883,630.439,273.367,613.119C265.222,596.555,253.904,580.191,241.206,568.574C229.49,557.855,215.501,550.513,201.005,544.668C186.085,538.651,170.123,535.475,152.764,533.366C132.984,530.963,111.023,531.217,88.442,532.614C63.08,534.183,8.04,543.556,8.04,543.556" stroke="#4CAF50" stroke-width="1" fill="none" stroke-linecap="round" stroke-miterlimit="4"></path><path d="M77.476,4C77.476,4,87.723,30.606,89.874,48.485C92.993,74.399,82.025,120.233,86.744,145.455C89.972,162.712,95.971,175.547,104.523,187.253C112.79,198.57,124.782,207.27,136.683,214.963C148.85,222.828,159.884,228.531,176.884,233.72C203.139,241.735,241.578,249.511,281.407,250.159C334.264,251.018,398.815,240.861,466.332,227.205C550.914,210.098,684.197,156.847,747.739,147.613C779.348,143.019,790.238,145.206,820.101,146.673C869.015,149.075,957.335,167.655,1013.065,168.204C1055.588,168.622,1091.503,164.063,1125.628,157.88C1154.933,152.571,1178.27,145.131,1206.03,135.886C1236.997,125.572,1266.537,114.828,1302.513,97.799C1351.554,74.585,1470.902,4,1470.902,4" stroke="#4CAF50" stroke-width="1" fill="none" stroke-linecap="round" stroke-miterlimit="4"></path><path d="M816.217,796C816.217,796,860.853,731.897,884.422,711.659C902.698,695.966,918.662,687.23,940.755,678.788C967.895,668.417,1000.365,663.609,1037.186,659.062C1085.435,653.103,1147.876,651.412,1206.03,651.63C1268.211,651.864,1345.401,653.53,1398.995,661.577C1438.241,667.47,1475.394,675.862,1499.476,686.869C1514.857,693.899,1525.99,701.955,1534.101,711.111C1540.641,718.493,1545.62,726.425,1547.03,735.354C1548.571,745.115,1545.648,757.78,1541.256,767.677C1536.696,777.95,1519.598,795.66,1519.598,795.66" stroke="#4CAF50" stroke-width="1" fill="none" stroke-linecap="round" stroke-miterlimit="4"></path><path d="M318.929,796C318.929,796,327.782,750.546,328.508,727.273C329.253,703.413,327.155,677.869,322.964,654.545C318.94,632.149,313.474,608.629,304.411,589.899C296.344,573.226,286.387,558.329,273.367,546.58C260.072,534.583,242.4,525.327,225.126,519.006C207.595,512.59,188.867,510.045,168.844,508.629C146.32,507.036,121.716,508.87,96.482,511.604C68.382,514.648,8.04,527.218,8.04,527.218" stroke="#4CAF50" stroke-width="1" fill="none" stroke-linecap="round" stroke-miterlimit="4"></path><path d="M36.906,4C36.906,4,51.149,35.73,54.142,56.566C58.268,85.286,44.868,135.04,50.831,161.616C54.83,179.439,62.567,191.639,72.362,203.695C82.314,215.944,96.167,225.554,110.326,234.343C125.438,243.724,142.632,251.261,160.804,257.61C180.64,264.541,204.264,270.129,225.126,273.376C244.38,276.373,257.662,277.923,281.407,277.233C322.651,276.034,386.432,267.559,450.251,255.754C535.852,239.919,681.919,192.106,747.739,183.174C779.742,178.831,790.446,180.284,820.101,180.968C867.565,182.063,951.033,196.101,1005.025,195.164C1047.218,194.433,1083.485,189.425,1117.588,182.585C1146.917,176.703,1169.71,168.981,1197.99,159.066C1230.835,147.551,1262.298,135.146,1302.513,116.126C1360.699,88.605,1510.823,4,1510.823,4" stroke="#4CAF50" stroke-width="1" fill="none" stroke-linecap="round" stroke-miterlimit="4"></path><path d="M1578.833,796L1596,769.722" stroke="#4CAF50" stroke-width="1" fill="none" stroke-linecap="round" stroke-miterlimit="4"></path><path d="M1596,723.565C1596,723.565,1582.564,703.044,1573.846,694.949C1565.135,686.861,1557.333,681.266,1543.719,675.007C1520.582,664.371,1483.174,653.061,1443.361,646.465C1387.495,637.208,1308.184,636.759,1238.191,635.93C1164.907,635.061,1069.135,637.081,1013.065,642.147C979.322,645.196,957.056,647.826,932.449,654.545C910.436,660.556,888.808,668.371,871.847,678.788C857.156,687.81,847.945,696.826,835.067,711.111C816.287,731.942,774.784,796,774.784,796" stroke="#4CAF50" stroke-width="1" fill="none" stroke-linecap="round" stroke-miterlimit="4"></path><path d="M4,9.363C4,9.363,17.492,37.118,20.286,56.566C24.495,85.854,8.191,140.58,14.985,169.697C19.737,190.063,29.814,204.343,41.807,218.182C54.129,232.4,70.522,242.804,88.442,253.482C109.334,265.931,137.034,277.972,160.804,286.389C182.537,294.084,204.252,299.552,225.126,303.075C244.367,306.323,258.337,308.224,281.407,307.621C318.505,306.651,368.943,298.475,426.131,288.278C510.966,273.151,639.761,228.363,739.698,218.14C829.132,208.992,927.404,226.462,996.985,222.303C1044.84,219.443,1074.675,216.742,1117.588,205.852C1169.847,192.591,1224.589,169.562,1286.432,142.017C1366.272,106.456,1553.759,4,1553.759,4" stroke="#4CAF50" stroke-width="1" fill="none" stroke-linecap="round" stroke-miterlimit="4"></path><path d="M361.073,796C361.073,796,365.887,740.877,364.982,711.111C363.973,677.921,360.253,635.395,353.721,606.061C348.805,583.988,343.265,565.16,334.253,549.495C326.531,536.071,317.372,525.796,305.528,516.252C292.284,505.58,275.095,496.055,257.286,489.999C237.895,483.405,215.648,480.526,192.965,479.804C167.705,479,140.97,482.872,112.563,487.346C79.852,492.498,8.04,510.599,8.04,510.599" stroke="#4CAF50" stroke-width="1" fill="none" stroke-linecap="round" stroke-miterlimit="4"></path><path d="M1596,672.663C1596,672.663,1547.112,647.254,1519.598,639.374C1489.833,630.849,1464.239,628.391,1423.116,625.092C1351.292,619.331,1213.473,619.635,1125.628,621.184C1055.713,622.417,984.392,623.681,937.389,630.303C908.654,634.351,889.267,638.604,868.836,646.465C850.68,653.45,836.922,658.337,820.101,673.282C792.396,697.896,732.303,796,732.303,796" stroke="#4CAF50" stroke-width="1" fill="none" stroke-linecap="round" stroke-miterlimit="4"></path><path d="M4,222.977C4,222.977,45.845,258.177,72.362,274.347C104.429,293.901,151.034,315.806,184.925,328.826C211.233,338.934,234.461,346.796,257.286,349.859C277.014,352.507,286.589,352.238,313.568,348.957C385.868,340.163,585.602,274.266,707.538,258.356C810.745,244.891,920.006,256.436,996.985,248.673C1048.653,243.463,1084.677,237.915,1125.628,226.913C1164.927,216.354,1190.773,205.369,1238.191,184.88C1324.598,147.545,1596,8.345,1596,8.345" stroke="#4CAF50" stroke-width="1" fill="none" stroke-linecap="round" stroke-miterlimit="4"></path><path d="M408.824,796C408.824,796,407.33,603.526,398.079,557.576C394.151,538.061,391,529.989,383.226,517.172C374.382,502.589,360.63,487.689,345.729,475.951C329.735,463.352,308.811,451.56,289.447,445.072C271.221,438.965,253.087,436.667,233.166,436.865C210.542,437.09,189.155,442.445,160.804,448.891C119.056,458.382,8.04,493.217,8.04,493.217" stroke="#4CAF50" stroke-width="1" fill="none" stroke-linecap="round" stroke-miterlimit="4"></path><path d="M1596,642.891C1596,642.891,1546.33,623.074,1519.598,617.149C1491.513,610.924,1471.75,609.572,1431.156,607.268C1342.327,602.224,1103.638,603.16,1005.025,606.345C952.505,608.042,918.125,608.781,884.422,614.407C859.399,618.584,839.421,623.273,820.101,631.798C802.201,639.695,784.584,650.907,771.859,662.515C761.084,672.345,755.303,681.5,746.753,694.949C734.684,713.935,721.724,749.584,709.464,767.677C701.149,779.946,684.754,796,684.754,796" stroke="#4CAF50" stroke-width="1" fill="none" stroke-linecap="round" stroke-miterlimit="4"></path><path d="M4,260.844C4,260.844,97.779,315.478,123.538,339.394C138.914,353.67,152.014,368.872,154.608,379.798C156.082,386.006,154.428,390.493,151.51,395.96C147.286,403.873,139.375,411.693,126.987,420.202C102.48,437.035,4,475.733,4,475.733" stroke="#4CAF50" stroke-width="1" fill="none" stroke-linecap="round" stroke-miterlimit="4"></path><path d="M474.201,796C474.201,796,463.562,763.003,460.603,743.434C456.991,719.548,454.91,693.73,456.802,662.626C459.427,619.47,487.854,553.803,482.92,509.091C478.873,472.418,443.929,430.936,443.251,412.121C442.978,404.541,445.267,400.943,448.539,395.96C452.457,389.994,457.543,385.507,466.781,379.798C486.263,367.759,530.649,351.625,567.354,339.394C609.824,325.242,651.622,311.971,707.538,301.906C787.779,287.463,925.169,285.644,1005.025,273.598C1059.605,265.365,1101.515,257.092,1141.709,245.24C1174.835,235.472,1194.437,227.123,1230.151,211.047C1288.535,184.765,1388.625,126.905,1455.276,94.685C1507.295,69.538,1596,31.246,1596,31.246" stroke="#4CAF50" stroke-width="1" fill="none" stroke-linecap="round" stroke-miterlimit="4"></path><path d="M1596,616.851C1596,616.851,1551.577,601.498,1527.638,596.906C1502.144,592.015,1485.882,591.145,1447.236,589.232C1348.177,584.33,1022.292,583.471,916.583,587.246C871.445,588.858,847.717,589.395,820.101,594.508C798.581,598.492,780.469,603.44,763.819,611.364C748.672,618.572,735.173,627.558,723.618,638.711C711.936,649.987,703.695,662.506,694.232,678.788C681.604,700.517,672.72,739.002,658.125,759.596C646.836,775.526,619.665,796,619.665,796" stroke="#4CAF50" stroke-width="1" fill="none" stroke-linecap="round" stroke-miterlimit="4"></path><path d="M4,292.178C4,292.178,52.325,322.57,66.628,339.394C77.54,352.23,86.628,369.168,87.886,379.798C88.647,386.222,86.71,390.395,83.782,395.96C79.709,403.698,72.204,412.23,62.509,420.202C48.468,431.747,4,454.154,4,454.154" stroke="#4CAF50" stroke-width="1" fill="none" stroke-linecap="round" stroke-miterlimit="4"></path><path d="M1596,590.865C1596,590.865,1535.006,574.401,1487.437,570.197C1398.541,562.339,1226.514,579.132,1101.508,574.751C982.996,570.598,814.2,555.891,755.779,546.386C735.598,543.102,726.86,541.727,715.578,536.517C706.016,532.101,697.838,526.989,691.457,519.131C684.29,510.305,679.643,497.008,676.235,484.848C672.683,472.176,670.681,457.138,671.008,444.444C671.301,433.045,673.071,421.784,676.895,412.121C680.479,403.064,684.56,395.888,692.555,387.879C704.625,375.788,726.353,361.838,747.739,352.093C773.035,340.566,799.402,335.063,836.181,326.677C895.145,313.233,1007.299,300.938,1069.347,287.007C1111.381,277.569,1141.67,269.157,1173.869,257.72C1202.803,247.442,1221.63,238.785,1254.271,222.832C1308.08,196.534,1400.867,139.01,1463.317,108.693C1511.927,85.094,1596,51.946,1596,51.946" stroke="#4CAF50" stroke-width="1" fill="none" stroke-linecap="round" stroke-miterlimit="4"></path><path d="M4,326.782C4,326.782,24.309,345.73,29.572,355.556C33.818,363.484,36.408,371.793,35.941,379.798C35.465,387.957,31.371,396.7,26.441,404.04C21.061,412.05,4,425.425,4,425.425" stroke="#4CAF50" stroke-width="1" fill="none" stroke-linecap="round" stroke-miterlimit="4"></path><path d="M1596,561.243C1596,561.243,1543.253,548.503,1503.518,546.259C1432.672,542.258,1298.278,561.141,1206.03,560.491C1125.751,559.925,1036.871,553.713,980.905,546.54C947.176,542.217,924.979,537.677,900.503,530.822C879.065,524.818,858.273,518.82,841.538,509.091C826.753,500.495,812.217,489.375,804.02,477.482C797.096,467.438,792.464,456.01,792.471,444.444C792.477,431.652,798.08,415.678,806.644,404.04C816.275,390.951,827.073,383.114,850.106,371.717C910.328,341.92,1132.968,297.172,1206.03,269.569C1240.009,256.731,1249.249,250.651,1278.392,235.24C1325.537,210.308,1402.286,157.808,1459.258,129.293C1507.186,105.304,1596,71.763,1596,71.763" stroke="#4CAF50" stroke-width="1" fill="none" stroke-linecap="round" stroke-miterlimit="4"></path><path d="M1596,515.634C1596,515.634,1557.821,510.497,1527.638,511.283C1468.036,512.835,1342.909,538.548,1262.312,542.101C1195.237,545.057,1126.263,541.469,1077.387,537.008C1044.971,534.049,1022.644,530.718,996.985,524.487C972.484,518.537,945.157,510.567,926.606,501.01C912.784,493.89,901.155,486.727,893.316,476.768C886.092,467.589,879.856,455.2,879.944,444.444C880.033,433.651,885.898,421.806,893.942,412.121C904.121,399.866,917.143,392.195,940.704,380.586C997.009,352.844,1154.707,320.793,1246.231,278.564C1328.127,240.777,1402.29,178.31,1467.133,145.455C1514.849,121.277,1596,91.629,1596,91.629" stroke="#4CAF50" stroke-width="1" fill="none" stroke-linecap="round" stroke-miterlimit="4"></path><path d="M1596,376.196C1596,376.196,1548.165,425.427,1527.638,441.833C1512.918,453.599,1503.711,460.278,1486.964,468.687C1463.762,480.336,1428.624,492.394,1398.995,500.512C1370.051,508.442,1343.033,513.422,1311.287,517.172C1274.257,521.545,1230.302,523.839,1189.95,522.929C1149.656,522.02,1105.091,519.274,1069.347,511.738C1039.454,505.436,1007.639,497.496,989.019,484.848C975.864,475.913,963.863,463.93,961.765,452.525C959.877,442.261,966.343,429.372,973.08,420.202C980.414,410.22,988.439,405.36,1005.624,395.96C1052.359,370.395,1203.681,332.39,1286.432,289.99C1359.128,252.741,1421.83,192.799,1479.397,161.858C1521.957,138.983,1596,112.531,1596,112.531" stroke="#4CAF50" stroke-width="1" fill="none" stroke-linecap="round" stroke-miterlimit="4"></path><path d="M1596,320.738C1596,320.738,1543.353,345.013,1515.618,363.636C1481.331,386.658,1443.449,431.861,1408.44,452.525C1380.534,468.996,1354.445,477.515,1326.087,484.848C1297.698,492.19,1267.596,495.073,1238.191,496.528C1208.816,497.98,1177.144,497.371,1149.749,493.585C1125.323,490.209,1098.602,485.531,1081.446,476.768C1068.92,470.37,1056.049,461.642,1052.843,452.525C1050.242,445.127,1053.124,435.649,1057.543,428.283C1063.059,419.088,1071.509,413.391,1087.424,404.04C1129.968,379.043,1271.961,342.992,1342.714,301.828C1400.909,267.97,1441.642,214.548,1488.187,185.859C1525.366,162.941,1596,136.185,1596,136.185" stroke="#4CAF50" stroke-width="1" fill="none" stroke-linecap="round" stroke-miterlimit="4"></path><path d="M1596,273.209C1596,273.209,1535.353,284.991,1517.7,282.828C1508.257,281.671,1500.971,279.323,1496.623,274.747C1492.85,270.777,1490.646,265.218,1491.354,258.586C1492.641,246.535,1505.329,224.139,1519.632,210.101C1537.487,192.577,1596,167.459,1596,167.459" stroke="#4CAF50" stroke-width="1" fill="none" stroke-linecap="round" stroke-miterlimit="4"></path><path d="M1213.191,412.121C1225.107,404.965,1245.789,398.167,1262.312,393.966C1278.253,389.913,1297.634,385.458,1310.553,386.973C1319.689,388.045,1330.995,390.624,1333.216,395.96C1335.526,401.509,1329.636,413.168,1322.841,420.202C1312.847,430.548,1289.32,440.179,1271.2,444.444C1253.065,448.714,1227.611,448.873,1214.07,445.788C1205.912,443.929,1198.137,440.225,1195.589,436.364C1193.997,433.951,1193.881,431.129,1195.043,428.283C1197.058,423.353,1205.074,416.996,1213.191,412.121" stroke="#4CAF50" stroke-width="1" fill="none" stroke-linecap="round" stroke-miterlimit="4"></path></svg>